<svg xmlns="http://www.w3.org/2000/svg" viewBox="0 0 96 96"><defs><linearGradient id="g" x1="0" y1="0" x2="1" y2="1"><stop offset="0" stop-color="#6366f1"/><stop offset="1" stop-color="#4338ca"/></linearGradient></defs><rect x="6" y="6" width="84" height="84" rx="20" fill="url(#g)"/><g transform="translate(24,24) scale(2)" fill="none" stroke="#fff" stroke-width="2" stroke-linecap="round" stroke-linejoin="round"><path d="M4 6a2 2 0 0 1 2 -2h12a2 2 0 0 1 2 2v12a2 2 0 0 1 -2 2h-12a2 2 0 0 1 -2 -2l0 -12" /><path d="M8 4l0 16" /><path d="M16 4l0 16" /><path d="M4 8l4 0" /><path d="M4 16l4 0" /><path d="M4 12l16 0" /><path d="M16 8l4 0" /><path d="M16 16l4 0" /></g></svg>